<?xml version="1.0" encoding="iso-8859-1"?>
<!-- Generator: Adobe Illustrator 19.0.0, SVG Export Plug-In . SVG Version: 6.00 Build 0)  -->
<svg version="1.1" id="Layer_1" xmlns="http://www.w3.org/2000/svg" xmlns:xlink="http://www.w3.org/1999/xlink" x="0px" y="0px"
	 viewBox="0 0 297 297" style="enable-background:new 0 0 297 297;" xml:space="preserve">
<g>
	<g>
		<circle style="fill:#3498DB;" cx="148.5" cy="148.5" r="148.5"/>
	</g>
	<path style="fill:#2393AD;" d="M297,148.5c0-13.094-1.702-25.789-4.884-37.884L214.5,33l-132,231l28.116,28.116
		c12.095,3.182,24.79,4.884,37.884,4.884C230.514,297,297,230.514,297,148.5z"/>
	<g>
		<path style="fill:#32373B;" d="M232.417,214.5H64.584c-8.33,0-15.084-6.753-15.084-15.083V97.584
			c0-8.33,6.753-15.084,15.084-15.084h167.833c8.33,0,15.083,6.753,15.083,15.084v101.833
			C247.5,207.747,240.747,214.5,232.417,214.5z"/>
	</g>
	<g>
		<path style="fill:#191C1E;" d="M232.417,82.5h-84.75v132h84.75c8.33,0,15.083-6.753,15.083-15.083V97.583
			C247.5,89.253,240.747,82.5,232.417,82.5z"/>
	</g>
	<g>
		<rect x="82.5" y="181.5" style="fill:#D0D5D9;" width="132" height="82.5"/>
	</g>
	<g>
		<rect x="147.667" y="181.5" style="fill:#B1B6BA;" width="66.833" height="82.5"/>
	</g>
	<g>
		<circle style="fill:#2ECC71;" cx="209" cy="132" r="5.5"/>
	</g>
	<g>
		<circle style="fill:#2ECC71;" cx="187" cy="132" r="5.5"/>
	</g>
	<g>
		<rect x="99" y="193" style="fill:#B0B5B2;" width="99" height="3.214"/>
	</g>
	<g>
		<rect x="99" y="207.595" style="fill:#B0B5B2;" width="99" height="3.214"/>
	</g>
	<g>
		<rect x="99" y="222.191" style="fill:#B0B5B2;" width="99" height="3.214"/>
	</g>
	<g>
		<rect x="99" y="236.786" style="fill:#B0B5B2;" width="99" height="3.214"/>
	</g>
	<g>
		<rect x="82.5" y="33" style="fill:#D0D5D9;" width="132" height="82.5"/>
	</g>
	<g>
		<rect x="147.667" y="33" style="fill:#B1B6BA;" width="66.833" height="82.5"/>
	</g>
	<g>
		<rect x="147.667" y="193" style="fill:#888E8B;" width="50.333" height="3.214"/>
	</g>
	<g>
		<rect x="147.667" y="207.595" style="fill:#888E8B;" width="50.333" height="3.214"/>
	</g>
	<g>
		<rect x="147.667" y="222.191" style="fill:#888E8B;" width="50.333" height="3.214"/>
	</g>
	<g>
		<rect x="147.667" y="236.786" style="fill:#888E8B;" width="50.333" height="3.214"/>
	</g>
</g>
<g>
</g>
<g>
</g>
<g>
</g>
<g>
</g>
<g>
</g>
<g>
</g>
<g>
</g>
<g>
</g>
<g>
</g>
<g>
</g>
<g>
</g>
<g>
</g>
<g>
</g>
<g>
</g>
<g>
</g>
</svg>
