<?xml version="1.0" encoding="iso-8859-1"?>
<!-- Generator: Adobe Illustrator 19.0.0, SVG Export Plug-In . SVG Version: 6.00 Build 0)  -->
<svg version="1.1" id="Layer_1" xmlns="http://www.w3.org/2000/svg" xmlns:xlink="http://www.w3.org/1999/xlink" x="0px" y="0px"
	 viewBox="0 0 297 297" style="enable-background:new 0 0 297 297;" xml:space="preserve">
<g>
	<g>
		<g>
			<g>
				<circle style="fill:#5E4534;" cx="148.5" cy="148.5" r="148.5"/>
			</g>
		</g>
	</g>
	<path style="fill:#3F2E22;" d="M244.357,118.509L52.124,210.942l85.671,85.671C141.331,296.865,144.9,297,148.5,297
		c74.83,0,136.722-55.351,146.993-127.342L244.357,118.509z"/>
	<g>
		<path style="fill:#D5C295;" d="M60,214.5h177c5.799,0,10.5-4.701,10.5-10.5v-78c0-5.799-4.701-10.5-10.5-10.5H60
			c-5.799,0-10.5,4.701-10.5,10.5v78C49.5,209.799,54.201,214.5,60,214.5z"/>
	</g>
	<g>
		<polygon style="fill:#FFFFFF;" points="176.667,49.5 99,49.5 99,132 198,132 198,70.833 		"/>
	</g>
	<g>
		<polygon style="fill:#D0D5D9;" points="176.667,70.833 198,70.833 176.667,49.5 		"/>
	</g>
	<g>
		<circle style="fill:#E67E22;" cx="221.835" cy="152.798" r="5.04"/>
	</g>
	<g>
		<circle style="fill:#E67E22;" cx="204.915" cy="152.798" r="5.04"/>
	</g>
	<g>
		<path style="fill:#8E725E;" d="M82.5,214.5h132v-20.667c0-6.812-5.522-12.333-12.333-12.333H94.833
			c-6.812,0-12.334,5.522-12.334,12.333L82.5,214.5L82.5,214.5z"/>
	</g>
	<g>
		<rect x="99" y="198" style="fill:#D0D5D9;" width="99" height="49.5"/>
	</g>
	<g>
		<path style="fill:#A8ACAF;" d="M181.5,217.5h-66c-1.657,0-3-1.343-3-3s1.343-3,3-3h66c1.657,0,3,1.343,3,3
			S183.157,217.5,181.5,217.5z"/>
	</g>
	<g>
		<path style="fill:#A8ACAF;" d="M181.5,234h-66c-1.657,0-3-1.343-3-3s1.343-3,3-3h66c1.657,0,3,1.343,3,3S183.157,234,181.5,234z"
			/>
	</g>
</g>
<g>
</g>
<g>
</g>
<g>
</g>
<g>
</g>
<g>
</g>
<g>
</g>
<g>
</g>
<g>
</g>
<g>
</g>
<g>
</g>
<g>
</g>
<g>
</g>
<g>
</g>
<g>
</g>
<g>
</g>
</svg>
