<svg width="278" height="128" viewBox="0 0 278 128" fill="none" xmlns="http://www.w3.org/2000/svg">
<g filter="url(#filter0_d)">
<rect x="4" width="270" height="120" rx="60" fill="#FEBA0C"/>
</g>
<path d="M67.968 68.192C66.592 68.192 65.352 67.912 64.248 67.352C63.16 66.776 62.304 65.984 61.68 64.976C61.072 63.968 60.768 62.824 60.768 61.544C60.768 60.264 61.072 59.12 61.68 58.112C62.304 57.104 63.16 56.32 64.248 55.76C65.352 55.184 66.592 54.896 67.968 54.896C69.328 54.896 70.512 55.184 71.52 55.76C72.544 56.32 73.288 57.128 73.752 58.184L70.848 59.744C70.176 58.56 69.208 57.968 67.944 57.968C66.968 57.968 66.16 58.288 65.52 58.928C64.88 59.568 64.56 60.44 64.56 61.544C64.56 62.648 64.88 63.52 65.52 64.16C66.16 64.8 66.968 65.12 67.944 65.12C69.224 65.12 70.192 64.528 70.848 63.344L73.752 64.928C73.288 65.952 72.544 66.752 71.52 67.328C70.512 67.904 69.328 68.192 67.968 68.192ZM81.8876 68.192C80.5276 68.192 79.3036 67.912 78.2156 67.352C77.1436 66.776 76.3036 65.984 75.6956 64.976C75.0876 63.968 74.7836 62.824 74.7836 61.544C74.7836 60.264 75.0876 59.12 75.6956 58.112C76.3036 57.104 77.1436 56.32 78.2156 55.76C79.3036 55.184 80.5276 54.896 81.8876 54.896C83.2476 54.896 84.4636 55.184 85.5356 55.76C86.6076 56.32 87.4476 57.104 88.0556 58.112C88.6636 59.12 88.9676 60.264 88.9676 61.544C88.9676 62.824 88.6636 63.968 88.0556 64.976C87.4476 65.984 86.6076 66.776 85.5356 67.352C84.4636 67.912 83.2476 68.192 81.8876 68.192ZM81.8876 65.12C82.8476 65.12 83.6316 64.8 84.2396 64.16C84.8636 63.504 85.1756 62.632 85.1756 61.544C85.1756 60.456 84.8636 59.592 84.2396 58.952C83.6316 58.296 82.8476 57.968 81.8876 57.968C80.9276 57.968 80.1356 58.296 79.5116 58.952C78.8876 59.592 78.5756 60.456 78.5756 61.544C78.5756 62.632 78.8876 63.504 79.5116 64.16C80.1356 64.8 80.9276 65.12 81.8876 65.12ZM99.1022 54.896C100.302 54.896 101.39 55.176 102.366 55.736C103.358 56.28 104.134 57.056 104.694 58.064C105.254 59.056 105.534 60.216 105.534 61.544C105.534 62.872 105.254 64.04 104.694 65.048C104.134 66.04 103.358 66.816 102.366 67.376C101.39 67.92 100.302 68.192 99.1022 68.192C97.4542 68.192 96.1582 67.672 95.2142 66.632V72.656H91.4702V55.088H95.0462V56.576C95.9742 55.456 97.3262 54.896 99.1022 54.896ZM98.4542 65.12C99.4142 65.12 100.198 64.8 100.806 64.16C101.43 63.504 101.742 62.632 101.742 61.544C101.742 60.456 101.43 59.592 100.806 58.952C100.198 58.296 99.4142 57.968 98.4542 57.968C97.4942 57.968 96.7022 58.296 96.0782 58.952C95.4702 59.592 95.1662 60.456 95.1662 61.544C95.1662 62.632 95.4702 63.504 96.0782 64.16C96.7022 64.8 97.4942 65.12 98.4542 65.12ZM120.505 55.088L114.673 68.792C114.081 70.28 113.345 71.328 112.465 71.936C111.601 72.544 110.553 72.848 109.321 72.848C108.649 72.848 107.985 72.744 107.329 72.536C106.673 72.328 106.137 72.04 105.721 71.672L107.089 69.008C107.377 69.264 107.705 69.464 108.073 69.608C108.457 69.752 108.833 69.824 109.201 69.824C109.713 69.824 110.129 69.696 110.449 69.44C110.769 69.2 111.057 68.792 111.313 68.216L111.361 68.096L105.769 55.088H109.633L113.257 63.848L116.905 55.088H120.505ZM127.921 68.192C126.545 68.192 125.305 67.912 124.201 67.352C123.113 66.776 122.257 65.984 121.633 64.976C121.025 63.968 120.721 62.824 120.721 61.544C120.721 60.264 121.025 59.12 121.633 58.112C122.257 57.104 123.113 56.32 124.201 55.76C125.305 55.184 126.545 54.896 127.921 54.896C129.281 54.896 130.465 55.184 131.473 55.76C132.497 56.32 133.241 57.128 133.705 58.184L130.801 59.744C130.129 58.56 129.161 57.968 127.897 57.968C126.921 57.968 126.113 58.288 125.473 58.928C124.833 59.568 124.513 60.44 124.513 61.544C124.513 62.648 124.833 63.52 125.473 64.16C126.113 64.8 126.921 65.12 127.897 65.12C129.177 65.12 130.145 64.528 130.801 63.344L133.705 64.928C133.241 65.952 132.497 66.752 131.473 67.328C130.465 67.904 129.281 68.192 127.921 68.192ZM148.345 61.592C148.345 61.64 148.321 61.976 148.273 62.6H138.505C138.681 63.4 139.097 64.032 139.753 64.496C140.409 64.96 141.225 65.192 142.201 65.192C142.873 65.192 143.465 65.096 143.977 64.904C144.505 64.696 144.993 64.376 145.441 63.944L147.433 66.104C146.217 67.496 144.441 68.192 142.105 68.192C140.649 68.192 139.361 67.912 138.241 67.352C137.121 66.776 136.257 65.984 135.649 64.976C135.041 63.968 134.737 62.824 134.737 61.544C134.737 60.28 135.033 59.144 135.625 58.136C136.233 57.112 137.057 56.32 138.097 55.76C139.153 55.184 140.329 54.896 141.625 54.896C142.889 54.896 144.033 55.168 145.057 55.712C146.081 56.256 146.881 57.04 147.457 58.064C148.049 59.072 148.345 60.248 148.345 61.592ZM141.649 57.728C140.801 57.728 140.089 57.968 139.513 58.448C138.937 58.928 138.585 59.584 138.457 60.416H144.817C144.689 59.6 144.337 58.952 143.761 58.472C143.185 57.976 142.481 57.728 141.649 57.728ZM158.685 54.896C160.285 54.896 161.573 55.376 162.549 56.336C163.541 57.296 164.037 58.72 164.037 60.608V68H160.293V61.184C160.293 60.16 160.069 59.4 159.621 58.904C159.173 58.392 158.525 58.136 157.677 58.136C156.733 58.136 155.981 58.432 155.421 59.024C154.861 59.6 154.581 60.464 154.581 61.616V68H150.837V55.088H154.413V56.6C154.909 56.056 155.525 55.64 156.261 55.352C156.997 55.048 157.805 54.896 158.685 54.896ZM175.759 67.376C175.391 67.648 174.935 67.856 174.391 68C173.863 68.128 173.303 68.192 172.711 68.192C171.175 68.192 169.983 67.8 169.135 67.016C168.303 66.232 167.887 65.08 167.887 63.56V58.256H165.895V55.376H167.887V52.232H171.631V55.376H174.847V58.256H171.631V63.512C171.631 64.056 171.767 64.48 172.039 64.784C172.327 65.072 172.727 65.216 173.239 65.216C173.831 65.216 174.335 65.056 174.751 64.736L175.759 67.376ZM190.11 61.592C190.11 61.64 190.086 61.976 190.038 62.6H180.27C180.446 63.4 180.862 64.032 181.518 64.496C182.174 64.96 182.99 65.192 183.966 65.192C184.638 65.192 185.23 65.096 185.742 64.904C186.27 64.696 186.758 64.376 187.206 63.944L189.198 66.104C187.982 67.496 186.206 68.192 183.87 68.192C182.414 68.192 181.126 67.912 180.006 67.352C178.886 66.776 178.022 65.984 177.414 64.976C176.806 63.968 176.502 62.824 176.502 61.544C176.502 60.28 176.798 59.144 177.39 58.136C177.998 57.112 178.822 56.32 179.862 55.76C180.918 55.184 182.094 54.896 183.39 54.896C184.654 54.896 185.798 55.168 186.822 55.712C187.846 56.256 188.646 57.04 189.222 58.064C189.814 59.072 190.11 60.248 190.11 61.592ZM183.414 57.728C182.566 57.728 181.854 57.968 181.278 58.448C180.702 58.928 180.35 59.584 180.222 60.416H186.582C186.454 59.6 186.102 58.952 185.526 58.472C184.95 57.976 184.246 57.728 183.414 57.728ZM196.179 56.792C196.627 56.168 197.227 55.696 197.979 55.376C198.747 55.056 199.627 54.896 200.619 54.896V58.352C200.203 58.32 199.923 58.304 199.779 58.304C198.707 58.304 197.867 58.608 197.259 59.216C196.651 59.808 196.347 60.704 196.347 61.904V68H192.603V55.088H196.179V56.792ZM207.977 57.512C210.345 57.512 212.089 57.984 213.209 58.928C214.345 59.872 214.913 61.136 214.913 62.72C214.913 63.744 214.657 64.68 214.145 65.528C213.633 66.36 212.849 67.032 211.793 67.544C210.753 68.04 209.465 68.288 207.929 68.288C206.745 68.288 205.577 68.136 204.425 67.832C203.289 67.512 202.321 67.064 201.521 66.488L203.057 63.512C203.697 63.992 204.433 64.368 205.265 64.64C206.097 64.896 206.953 65.024 207.833 65.024C208.809 65.024 209.577 64.832 210.137 64.448C210.697 64.064 210.977 63.528 210.977 62.84C210.977 62.12 210.681 61.576 210.089 61.208C209.513 60.84 208.505 60.656 207.065 60.656H202.769L203.633 51.2H213.881V54.32H206.873L206.609 57.512H207.977ZM231.875 64.472H229.139V68H225.347V64.472H216.299V61.856L224.219 51.2H228.299L220.955 61.304H225.467V58.16H229.139V61.304H231.875V64.472Z" fill="black"/>
<path d="M102.111 34.3339C96.974 27.8063 90.0393 22.9305 82.1843 20.3232C74.3293 17.7159 65.9067 17.4942 57.9818 19.686C50.0568 21.8779 42.9854 26.3849 37.6616 32.6371C32.3379 38.8893 29.001 46.6059 28.0729 54.8111C27.1449 63.0163 28.6673 71.3415 32.4477 78.7341C36.2281 86.1266 42.0967 92.2544 49.3113 96.3426C56.526 100.431 64.7626 102.296 72.9797 101.701C81.1969 101.107 89.0254 98.0806 95.4753 93.0043L82.7252 76.804C79.4413 79.3886 75.4554 80.9296 71.2717 81.2321C67.088 81.5346 62.8943 80.5852 59.221 78.5037C55.5477 76.4222 52.5597 73.3023 50.6349 69.5384C48.7102 65.7745 47.935 61.5357 48.4076 57.3581C48.8801 53.1804 50.579 49.2515 53.2896 46.0683C56.0002 42.885 59.6006 40.5902 63.6355 39.4743C67.6705 38.3583 71.9588 38.4712 75.9581 39.7987C79.9575 41.1262 83.4883 43.6087 86.104 46.9322L102.111 34.3339Z" fill="black"/>
<line x1="99" y1="76" x2="233" y2="76" stroke="black" stroke-width="2"/>
<defs>
<filter id="filter0_d" x="0" y="0" width="278" height="128" filterUnits="userSpaceOnUse" color-interpolation-filters="sRGB">
<feFlood flood-opacity="0" result="BackgroundImageFix"/>
<feColorMatrix in="SourceAlpha" type="matrix" values="0 0 0 0 0 0 0 0 0 0 0 0 0 0 0 0 0 0 127 0"/>
<feOffset dy="4"/>
<feGaussianBlur stdDeviation="2"/>
<feColorMatrix type="matrix" values="0 0 0 0 0 0 0 0 0 0 0 0 0 0 0 0 0 0 0.25 0"/>
<feBlend mode="normal" in2="BackgroundImageFix" result="effect1_dropShadow"/>
<feBlend mode="normal" in="SourceGraphic" in2="effect1_dropShadow" result="shape"/>
</filter>
</defs>
</svg>
